<svg xmlns="http://www.w3.org/2000/svg" xmlns:xlink="http://www.w3.org/1999/xlink" viewBox="0 0 512 512" style="enable-background:new 0 0 512 512" xml:space="preserve"><path style="fill:#78bede" d="M0 255.997C0 114.607 114.613 0 256.002 0 397.387 0 512 114.607 512 255.997 512 397.389 397.387 512 256.002 512 114.613 512 0 397.389 0 255.997z"/><defs><path id="a" d="M0 255.996C0 114.607 114.613 0 256.002 0 397.387 0 512 114.607 512 255.996 512 397.389 397.387 512 256.002 512 114.613 512 0 397.389 0 255.996z"/></defs><clipPath id="b"><use xlink:href="#a" style="overflow:visible"/></clipPath><g style="clip-path:url(#b)"><path style="fill:#f0b39c" d="M189.227 265.974c6.561 15.537 2.988 30.638-7.979 33.73-10.969 3.092-25.174-6.997-31.734-22.532-6.561-15.537-2.988-30.639 7.979-33.73s25.175 6.997 31.734 22.532zM322.772 265.974c-6.561 15.537-2.986 30.638 7.98 33.73 10.967 3.092 25.174-6.997 31.732-22.532 6.562-15.537 2.99-30.639-7.979-33.73-10.964-3.093-25.173 6.997-31.733 22.532z"/></g><path style="clip-path:url(#b);fill:#f0b39c" d="m441.602 545.884-.053-.842c0-51.205-19.168-100.816-42.572-110.264l-99.68-40.158c-23.406-9.439-61.737-9.477-85.148-.112l-101.107 40.396c-23.425 9.378-42.593 58.933-42.593 110.138l-.052.842h371.205z"/><path style="clip-path:url(#b);fill:#f0b39c" d="M298.212 397.085c0 21.981-17.818 39.8-39.799 39.8h-4.826c-21.98 0-39.799-17.818-39.799-39.8V294.57c0-21.98 17.818-39.8 39.799-39.8h4.826c21.98 0 39.799 17.819 39.799 39.8v102.515z"/><g style="clip-path:url(#b)"><path style="fill:#ffdbc5" d="M341.653 291.733c0 36.842-29.862 66.702-66.704 66.702h-37.904c-36.837 0-66.699-29.86-66.699-66.702V182.586c0-36.837 29.862-66.702 66.699-66.702h37.904c36.842 0 66.704 29.865 66.704 66.702v109.147z"/></g><g style="clip-path:url(#b)"><circle style="fill:#3d2a3d" cx="223.159" cy="265.98" r="9.904"/><circle style="fill:#3d2a3d" cx="288.841" cy="265.98" r="9.904"/></g><path style="clip-path:url(#b);fill:#f0b39c" d="M270.173 279.542c-.449 7.895-7.047 14.157-15.202 14.157a15.196 15.196 0 0 1-14.576-10.712c-.424 1.452-.732 2.963-.732 4.546 0 9.028 7.327 16.353 16.339 16.353 9.035 0 16.335-7.325 16.335-16.353 0-2.926-.819-5.618-2.164-7.991z"/><path style="clip-path:url(#b);fill:#966796" d="M441.549 545.043c0-51.205-19.168-100.816-42.572-110.264l-79.255-31.93c-11.019 24.201-35.397 41.035-63.722 41.035-28.194 0-52.479-16.678-63.57-40.698l-79.387 31.719c-23.425 9.378-42.593 58.933-42.593 110.138l-.052.842h371.204l-.053-.842z"/><g style="clip-path:url(#b)"><ellipse style="fill:#f5b8a7" cx="311" cy="290.884" rx="20" ry="15"/><ellipse style="fill:#f5b8a7" cx="201" cy="290.884" rx="20" ry="15"/></g><g style="clip-path:url(#b)"><path style="fill:#fff" d="M276.758 312.35c-11.174 10.52-30.342 10.52-41.518 0-7.879-7.418-19.781 4.44-11.879 11.88 17.939 16.887 47.338 16.887 65.275 0 7.906-7.44-3.997-19.298-11.878-11.88z"/></g><g style="clip-path:url(#b)"><path style="fill:#3d2a3d" d="M204.01 245.106c8.595-4.292 18.153-5.828 27.695-5.614 8.695.197 8.674-13.278 0-13.474-11.974-.27-23.764 2.095-34.495 7.454-7.775 3.883-.948 15.504 6.8 11.634zM307.99 245.106c-8.594-4.292-18.154-5.828-27.696-5.614-8.693.197-8.674-13.278 0-13.474 11.974-.27 23.764 2.095 34.496 7.454 7.775 3.883.95 15.504-6.8 11.634z"/></g><g style="clip-path:url(#b)"><path style="fill:#3d2a3d" d="m174.136 245.884 3.899-34.219c2.067-18.139 17.416-31.839 35.672-31.84l84.573-.004c18.255-.001 33.604 13.696 35.675 31.833l3.907 34.23h9.819c3.548-11.315 5.485-23.481 5.485-36.158 0-60.192-43.503-108.984-97.166-108.984-53.664 0-97.167 48.792-97.167 108.984 0 12.677 1.937 24.843 5.486 36.158h9.817z"/><path style="fill:#3d2a3d" d="m158.427 266.352 15.146-.468 9.673-118.454-19.673 38.454zM353.573 266.352l-15.146-.468-9.673-118.454 19.673 38.454z"/></g></svg>
